<?xml version="1.0" standalone="no"?>
<!DOCTYPE svg PUBLIC "-//W3C//DTD SVG 20010904//EN"
 "http://www.w3.org/TR/2001/REC-SVG-20010904/DTD/svg10.dtd">
<svg version="1.0" xmlns="http://www.w3.org/2000/svg"
 width="500.000000pt" height="500.000000pt" viewBox="0 0 500.000000 500.000000"
 preserveAspectRatio="xMidYMid meet">

<g transform="translate(0.000000,500.000000) scale(0.100000,-0.100000)"
fill="#000000" stroke="none">
<path d="M150 2500 l0 -2350 2350 0 2350 0 0 2350 0 2350 -2350 0 -2350 0 0
-2350z m1266 1164 c33 -12 51 -12 89 -4 53 12 115 3 213 -31 l55 -19 66 33
c65 32 67 32 232 35 130 3 181 0 231 -13 101 -26 166 -61 223 -119 l51 -54 79
-7 c127 -12 247 0 360 36 139 45 253 46 375 3 209 -74 399 -228 563 -456 72
-100 105 -166 143 -278 26 -75 29 -98 28 -205 0 -96 -5 -134 -22 -190 -32 -97
-37 -190 -18 -314 9 -58 16 -133 16 -167 0 -46 6 -72 22 -99 14 -25 21 -55 22
-95 1 -32 -1 -57 -5 -54 -11 6 -17 -18 -14 -57 3 -30 0 -35 -17 -34 -11 1 -23
7 -28 15 -6 10 -9 8 -13 -6 -3 -13 -5 -9 -6 11 -1 21 -4 26 -10 16 -5 -7 -7
-28 -5 -45 3 -20 2 -26 -4 -18 -5 8 -13 12 -18 10 -5 -1 -12 24 -15 57 -6 50
-3 67 16 105 44 89 47 155 15 360 -24 161 -25 238 -4 332 19 83 13 175 -14
236 l-18 40 -23 -67 c-13 -36 -62 -156 -108 -266 -85 -200 -102 -238 -164
-370 -46 -98 -44 -147 11 -293 27 -71 40 -120 36 -135 -3 -12 -1 -54 6 -92 19
-118 1 -145 -110 -168 -44 -9 -66 -19 -81 -38 -12 -15 -40 -32 -68 -40 -50
-14 -219 -19 -263 -7 -14 4 -28 7 -31 7 -4 1 -10 8 -13 17 -10 26 22 84 84
150 33 36 66 77 74 92 25 48 55 164 72 278 l16 112 -31 66 c-20 40 -59 95
-101 141 -39 41 -70 81 -70 89 0 17 -23 23 -115 31 -38 3 -88 10 -110 15 -83
18 -105 20 -105 7 0 -6 -7 -25 -16 -42 -20 -38 -20 -145 0 -261 8 -49 20 -129
26 -179 16 -127 34 -175 96 -257 73 -97 79 -138 31 -216 -25 -43 -81 -67 -170
-75 -52 -5 -76 -2 -105 10 -80 37 -88 58 -46 128 24 42 25 47 13 101 -7 30
-25 71 -40 91 -32 39 -47 78 -84 213 -14 52 -58 163 -97 245 -82 175 -113 253
-123 315 -9 53 -29 80 -62 80 -13 0 -34 5 -45 11 -21 11 -21 10 -13 -72 10
-104 8 -146 -8 -173 -8 -15 -12 -83 -11 -226 0 -298 28 -562 66 -626 19 -32
19 -36 5 -58 -37 -56 -177 -91 -305 -76 -61 8 -112 31 -112 51 0 22 24 55 67
96 45 42 45 43 39 95 -3 29 -10 112 -15 183 -7 104 -18 160 -51 280 -98 347
-111 408 -119 555 -5 105 -8 115 -26 115 -22 0 -34 39 -36 123 -1 28 -3 52 -5
52 -3 0 -22 -9 -44 -20 -22 -11 -49 -20 -61 -20 -12 0 -43 -20 -69 -44 -50
-47 -124 -89 -177 -100 -24 -6 -33 -14 -37 -34 -12 -61 -26 -165 -41 -312 -24
-247 -68 -379 -158 -477 -53 -58 -89 -73 -175 -73 -77 0 -106 16 -82 45 10 12
10 18 0 30 -23 28 5 45 67 42 49 -2 57 1 74 23 36 49 49 179 47 488 0 164 4
308 9 335 l11 49 -29 -35 c-57 -69 -179 -100 -230 -58 -28 23 -21 33 36 51 51
17 80 35 128 79 47 44 78 101 70 129 -3 11 2 31 11 44 18 26 20 92 5 158 -44
191 -50 325 -19 444 57 215 149 279 316 220z"/>
</g>
</svg>
