<?xml version="1.0" standalone="no"?>
<!DOCTYPE svg PUBLIC "-//W3C//DTD SVG 20010904//EN"
 "http://www.w3.org/TR/2001/REC-SVG-20010904/DTD/svg10.dtd">
<svg version="1.0" xmlns="http://www.w3.org/2000/svg"
 width="240.000000pt" height="240.000000pt" viewBox="0 0 240.000000 240.000000"
 preserveAspectRatio="xMidYMid meet">

<g transform="translate(0.000000,240.000000) scale(0.100000,-0.100000)"
fill="#000000" stroke="none">
<path d="M1098 1309 l-3 -1091 -303 365 c-166 202 -307 369 -312 372 -5 3 -25
-8 -44 -25 l-35 -31 375 -450 376 -449 373 448 373 447 -34 33 c-19 18 -39 30
-44 27 -5 -3 -146 -171 -312 -372 l-303 -366 -3 1092 -2 1091 -50 0 -50 0 -2
-1091z"/>
</g>
</svg>
